<mxfile host="app.diagrams.net" agent="Mozilla/5.0 (Windows NT 10.0; Win64; x64) AppleWebKit/537.36 (KHTML, like Gecko) Chrome/134.0.0.0 Safari/537.36" version="26.1.0">
  <diagram name="PÃ¡gina-1" id="xgvbRrjqffgClCJEDgmA">
    <mxGraphModel dx="503" dy="267" grid="1" gridSize="10" guides="1" tooltips="1" connect="1" arrows="1" fold="1" page="1" pageScale="1" pageWidth="827" pageHeight="1169" math="0" shadow="0">
      <root>
        <mxCell id="0" />
        <mxCell id="1" parent="0" />
        <mxCell id="6X19zhXaGsHQ_P0Ei_mj-5" value="500ms" style="edgeStyle=orthogonalEdgeStyle;rounded=0;orthogonalLoop=1;jettySize=auto;html=1;exitX=1;exitY=0.5;exitDx=0;exitDy=0;entryX=0;entryY=0.5;entryDx=0;entryDy=0;" edge="1" parent="1" source="6X19zhXaGsHQ_P0Ei_mj-1" target="6X19zhXaGsHQ_P0Ei_mj-2">
          <mxGeometry relative="1" as="geometry" />
        </mxCell>
        <mxCell id="6X19zhXaGsHQ_P0Ei_mj-1" value="E0&lt;div&gt;&lt;br&gt;&lt;div&gt;00&lt;/div&gt;&lt;/div&gt;" style="ellipse;whiteSpace=wrap;html=1;aspect=fixed;" vertex="1" parent="1">
          <mxGeometry x="110" y="150" width="90" height="90" as="geometry" />
        </mxCell>
        <mxCell id="6X19zhXaGsHQ_P0Ei_mj-6" value="500ms" style="edgeStyle=orthogonalEdgeStyle;rounded=0;orthogonalLoop=1;jettySize=auto;html=1;exitX=0.5;exitY=1;exitDx=0;exitDy=0;entryX=0.5;entryY=0;entryDx=0;entryDy=0;" edge="1" parent="1" source="6X19zhXaGsHQ_P0Ei_mj-2" target="6X19zhXaGsHQ_P0Ei_mj-4">
          <mxGeometry relative="1" as="geometry" />
        </mxCell>
        <mxCell id="6X19zhXaGsHQ_P0Ei_mj-2" value="E1&lt;div&gt;&lt;br&gt;&lt;div&gt;01&lt;/div&gt;&lt;/div&gt;" style="ellipse;whiteSpace=wrap;html=1;aspect=fixed;" vertex="1" parent="1">
          <mxGeometry x="260" y="150" width="90" height="90" as="geometry" />
        </mxCell>
        <mxCell id="6X19zhXaGsHQ_P0Ei_mj-3" value="E3&lt;div&gt;&lt;br&gt;&lt;div&gt;11&lt;/div&gt;&lt;/div&gt;" style="ellipse;whiteSpace=wrap;html=1;aspect=fixed;" vertex="1" parent="1">
          <mxGeometry x="110" y="280" width="90" height="90" as="geometry" />
        </mxCell>
        <mxCell id="6X19zhXaGsHQ_P0Ei_mj-7" value="500ms" style="edgeStyle=orthogonalEdgeStyle;rounded=0;orthogonalLoop=1;jettySize=auto;html=1;exitX=0;exitY=0.5;exitDx=0;exitDy=0;entryX=1;entryY=0.5;entryDx=0;entryDy=0;" edge="1" parent="1" source="6X19zhXaGsHQ_P0Ei_mj-4" target="6X19zhXaGsHQ_P0Ei_mj-3">
          <mxGeometry relative="1" as="geometry" />
        </mxCell>
        <mxCell id="6X19zhXaGsHQ_P0Ei_mj-4" value="E2&lt;div&gt;&lt;br&gt;&lt;div&gt;10&lt;/div&gt;&lt;/div&gt;" style="ellipse;whiteSpace=wrap;html=1;aspect=fixed;" vertex="1" parent="1">
          <mxGeometry x="260" y="280" width="90" height="90" as="geometry" />
        </mxCell>
        <mxCell id="6X19zhXaGsHQ_P0Ei_mj-8" value="500ms" style="edgeStyle=orthogonalEdgeStyle;rounded=0;orthogonalLoop=1;jettySize=auto;html=1;exitX=0.5;exitY=0;exitDx=0;exitDy=0;" edge="1" parent="1" source="6X19zhXaGsHQ_P0Ei_mj-3" target="6X19zhXaGsHQ_P0Ei_mj-1">
          <mxGeometry relative="1" as="geometry">
            <mxPoint x="155" y="244" as="targetPoint" />
          </mxGeometry>
        </mxCell>
      </root>
    </mxGraphModel>
  </diagram>
</mxfile>
